<?xml version="1.0" encoding="UTF-8"?>
<svg version="1.1" xmlns="http://www.w3.org/2000/svg" width="512" height="512">
<path d="M0 0 C39.93 0 79.86 0 121 0 C121.1209091 50.10114965 121.1209091 50.10114965 121.14648438 71.18359375 C121.16424757 85.70917966 121.18506799 100.23471316 121.22631836 114.76025391 C121.25635355 125.34168311 121.27560632 135.92306956 121.28226548 146.50454021 C121.28615396 152.0999562 121.29520098 157.69524996 121.31719017 163.29062653 C121.33777913 168.57324697 121.34378925 173.85569658 121.33932304 179.13835335 C121.34013834 181.06180568 121.34596893 182.98526463 121.35761642 184.90868187 C121.451058 201.15677347 120.32020838 217.55363677 115.3125 233.125 C115.05831299 233.93791504 114.80412598 234.75083008 114.54223633 235.58837891 C109.9498165 249.78213143 103.72121689 262.88992731 95 275 C94.58911133 275.57169922 94.17822266 276.14339844 93.75488281 276.73242188 C70.81449716 308.17249205 36.77577297 329.80568888 -1.75 336.25 C-13.76268103 337.78966332 -25.75589059 338.1500638 -37.85180664 338.14526367 C-39.38628215 338.14826491 -40.92075691 338.15166961 -42.45523071 338.15544128 C-46.58171726 338.16418895 -50.70818301 338.1666155 -54.83467793 338.16725707 C-57.4256246 338.16797302 -60.01656614 338.17011757 -62.60751152 338.17275429 C-71.68324996 338.18197826 -80.75897382 338.18609302 -89.8347168 338.18530273 C-98.23475258 338.18470324 -106.63472388 338.19523751 -115.03474337 338.2110464 C-122.29559406 338.22421419 -129.55642392 338.22948277 -136.81728643 338.22884732 C-141.13202437 338.22859497 -145.44670492 338.23129816 -149.76143074 338.24202538 C-191.76433013 338.33906877 -231.77856438 335.21920341 -266 308 C-266.89976562 307.30261719 -267.79953125 306.60523438 -268.7265625 305.88671875 C-292.40284771 287.11242498 -309.86267276 261.625783 -318.375 232.5625 C-318.6013916 231.80259766 -318.8277832 231.04269531 -319.06103516 230.25976562 C-324.03051855 212.05450564 -324.51169272 193.63352477 -324.44604492 174.88085938 C-324.43681038 172.11948491 -324.44390319 169.35895267 -324.46655273 166.59765625 C-324.66546019 142.21824436 -323.76698709 122.01827949 -305.85546875 103.73046875 C-293.48600031 91.90248183 -278.57734172 86.59751294 -261.6550293 86.62915039 C-244.59679486 87.07486134 -230.93381413 94.10835483 -219 106 C-218.43539062 106.54140625 -217.87078125 107.0828125 -217.2890625 107.640625 C-205.92489024 119.54594832 -202.54261408 136.21357888 -202.62890625 152.0703125 C-202.6115345 154.53776188 -202.59395002 157.00520977 -202.57617188 159.47265625 C-202.56609275 163.3081326 -202.56250821 167.14351483 -202.56420898 170.97900391 C-202.56062615 174.71805075 -202.5332516 178.45639208 -202.50390625 182.1953125 C-202.51208878 183.33098663 -202.5202713 184.46666077 -202.52870178 185.63674927 C-202.45042692 194.07354666 -201.10255316 201.24427775 -195.625 207.875 C-185.44217662 216.11823798 -176.71664834 216.29885151 -164.02197266 216.2746582 C-162.5099411 216.279011 -160.99791174 216.28419604 -159.48588562 216.29014587 C-155.39695029 216.30348638 -151.30810767 216.30412006 -147.21915483 216.30158257 C-143.79739151 216.30050945 -140.37564669 216.30540498 -136.95388734 216.310188 C-128.87679611 216.32126618 -120.79975139 216.32173018 -112.72265625 216.31567383 C-104.40882931 216.30963552 -96.09517168 216.32194528 -87.78137362 216.3432439 C-80.62611493 216.36089595 -73.47090996 216.36685556 -66.31563032 216.36360615 C-62.04975551 216.36179882 -57.78400147 216.36437432 -53.51814651 216.37832069 C-49.5043267 216.39095317 -45.49076958 216.3889041 -41.47695351 216.37590981 C-40.01049394 216.37355618 -38.54401557 216.3762348 -37.07757759 216.38453293 C-26.89503691 216.43796308 -16.896705 216.07740955 -8.53515625 209.59375 C-2.6618509 203.49627269 -0.85242104 196.39877634 -0.84178162 188.19831848 C-0.83437465 186.99390918 -0.83437465 186.99390918 -0.82681805 185.76516837 C-0.81141994 183.06585981 -0.80307616 180.36657508 -0.79467773 177.66723633 C-0.78510103 175.73578175 -0.77509107 173.80432928 -0.76467896 171.87287903 C-0.73760134 166.62117149 -0.71660724 161.36945494 -0.69667697 156.11771607 C-0.67483503 150.63239025 -0.64743758 145.14709229 -0.62062073 139.66178894 C-0.57066958 129.27085928 -0.52573974 118.87991417 -0.48259836 108.48895425 C-0.42402353 94.45027658 -0.35772366 80.41163556 -0.29184818 66.37299061 C-0.18823561 44.24868508 -0.09497163 22.12434821 0 0 Z " fill="#FFFFFF" transform="translate(327,171)"/>
<path d="M0 0 C1.25318527 -0.0049649 2.50637054 -0.00992981 3.79753113 -0.01504517 C7.21745969 -0.02709835 10.63732755 -0.03459788 14.05727005 -0.03905582 C16.20223496 -0.04200169 18.3471947 -0.04610934 20.49215698 -0.05056 C27.22723074 -0.06421539 33.96229248 -0.07389038 40.69737911 -0.07776189 C48.42688531 -0.08223146 56.1562137 -0.09973621 63.88566589 -0.12876248 C69.88942818 -0.15051184 75.89314095 -0.16047325 81.89694214 -0.16180301 C85.46886057 -0.16284204 89.04061145 -0.16855378 92.61248779 -0.18662262 C129.57816081 -0.36297291 129.57816081 -0.36297291 142.6328125 6.72363281 C143.28886475 7.0680542 143.94491699 7.41247559 144.62084961 7.76733398 C160.03479879 16.23680612 169.07254711 30.06828618 174.0703125 46.64941406 C177.71521395 62.1149334 175.19155652 79.02274188 167.00390625 92.64160156 C157.54357165 106.79917887 145.03078159 116.18600142 128.47299194 120.5443306 C122.6834413 121.67702034 116.90796502 121.57700645 111.02734375 121.54931641 C109.62486362 121.5533913 108.22238672 121.55873829 106.81991577 121.56524658 C103.04300804 121.57881705 99.26634867 121.5736645 95.4894371 121.56410933 C91.51744722 121.55645901 87.54547714 121.56357313 83.57348633 121.56826782 C76.90604882 121.57370985 70.23871135 121.56657473 63.57128906 121.55224609 C55.88735721 121.53592255 48.20366426 121.54121216 40.5197382 121.55772531 C33.89602409 121.57138464 27.27238146 121.5732382 20.6486578 121.5654093 C16.70417814 121.56075712 12.75981039 121.56003969 8.81533813 121.57001877 C5.10513882 121.57875127 1.3952444 121.57255335 -2.31492233 121.555336 C-4.30822086 121.54954448 -6.30154548 121.55833274 -8.29483032 121.56771851 C-25.58438964 121.44692814 -40.82723529 115.28519475 -53.05078125 103.05957031 C-66.43671798 88.301227 -69.67243646 72.05832517 -68.87939453 52.76318359 C-68.45171364 47.19078388 -66.89053953 42.29294499 -64.6796875 37.16113281 C-64.35226562 36.3090625 -64.02484375 35.45699219 -63.6875 34.57910156 C-57.63425209 20.55058906 -44.44596789 10.02223098 -30.6796875 4.16113281 C-20.50700626 0.44656285 -10.73390075 0.01024637 0 0 Z " fill="#FFFFFF" transform="translate(333.6796875,2.8388671875)"/>
</svg>
