      <svg
        width="30"
        height="30"
        viewBox="0 0 47 41"
        className="fill-black dark:fill-white"
        xmlns="http://www.w3.org/2000/svg"
      >
        <path d="M0.345215 0.450195H15.6363C15.6363 0.450195 22.0583 12.3486 26.6885 19.6614C26.8836 19.9694 26.9797 20.151 27.1894 20.4493C27.3852 20.7278 27.4954 20.8853 27.7214 21.1399C27.9339 21.3795 27.8963 21.356 28.1397 21.6249C28.2726 21.7719 28.3875 21.8829 28.6738 22.068C28.933 22.2355 29.377 22.3481 29.7138 22.2345C29.9746 22.1465 30.0451 22.1136 30.2668 21.9894C31.043 21.5543 31.8402 19.9698 31.8402 19.9698L40.7527 3.71523H32.9372V0.450859L46.3206 0.450195L35.594 19.0675C35.594 19.0675 34.5027 20.8176 33.7209 22.1763C33.5935 22.3977 33.0493 23.1986 32.8374 23.4686C32.4369 23.9791 32.2132 24.2841 31.8402 24.6523C31.4828 25.005 31.1302 25.1777 30.8799 25.2783C30.4928 25.4337 30.0788 25.5121 29.663 25.546C29.3087 25.5749 29.0702 25.5934 28.7179 25.546C28.2786 25.4868 28.2472 25.4717 27.7214 25.2783C27.5003 25.197 27.131 24.9776 26.783 24.7266C26.3964 24.4478 26.1328 24.1992 25.6981 23.7395C25.3155 23.3347 25.1467 23.0947 24.8373 22.6316C24.5125 22.1455 24.2598 21.8766 23.953 21.379C19.7839 14.6168 13.8639 3.71523 13.8639 3.71523H5.99112L23.3635 33.9098L26.6885 28.1777C26.6885 28.1777 27.1444 28.7994 28.7438 28.7475C30.2137 28.6998 30.5672 28.1777 30.5672 28.1777L23.3635 40.437L3.53103 6.05657L2.19899 3.71523L0.345215 0.450195Z"></path>
      </svg>
